<svg width="25" height="38" viewBox="0 0 25 38" fill="none" xmlns="http://www.w3.org/2000/svg">
<g clip-path="url(#clip0_1_81)">
<path d="M8.62598 10.1387C7.16642 8.57268 5.51607 6.7573 5.64981 4.44612C5.70722 3.45465 6.10275 2.49044 6.90341 1.8751C7.59877 1.33652 8.49809 1.19527 9.35148 1.25061C10.2534 1.30793 11.1299 1.58556 11.9599 1.91983C13.0538 2.35974 14.1095 2.89377 15.1087 3.51741C17.1029 4.76565 18.8904 6.35251 20.3435 8.20451C21.5442 9.73598 22.7342 11.5938 22.6956 13.6248C22.6775 14.616 22.2716 15.5629 21.5663 16.2636C20.816 17.0074 19.8259 17.4387 18.8377 17.7602C17.7051 18.1301 16.5264 18.3707 15.3693 18.65L11.5665 19.5687C9.49093 20.0703 7.34564 20.5923 5.55124 21.8192C3.85406 22.9822 2.80155 24.8351 2.90014 26.9134C3.00265 29.0586 4.42598 30.924 6.355 31.7802C6.85942 32.0056 7.39156 32.1589 7.93408 32.2507C8.11354 32.2817 8.49115 32.2801 8.46618 32.0101C8.44121 31.7401 7.99315 31.6112 7.79683 31.5732C5.67177 31.1627 4.24082 29.1742 4.16324 27.0627C4.08567 24.9511 5.4532 23.0214 7.32522 21.9867C9.36653 20.8583 11.7252 20.4316 13.9629 19.8928C15.2546 19.5803 16.5463 19.2678 17.838 18.9553C18.9369 18.6893 20.0505 18.4112 21.0752 17.9194C22.0272 17.4641 22.8765 16.8222 23.4167 15.8991C23.9108 15.0545 24.0366 14.0561 23.9092 13.0983C23.6317 11.0109 22.3326 9.1738 21.0192 7.60698C19.4562 5.73212 17.558 4.12913 15.4562 2.88814C13.5676 1.771 11.421 0.74166 9.20591 0.535638C7.27118 0.35265 5.22821 1.01087 4.58474 3.04321C3.88008 5.26252 5.07501 7.38839 6.45512 9.02959C6.82377 9.47001 7.2162 9.88965 7.60864 10.3093C7.80612 10.5199 8.20892 10.6417 8.48837 10.5818C8.75535 10.5248 8.80984 10.3371 8.62598 10.1387V10.1387Z" fill="white"/>
<path d="M1.66275 34.3695C1.0376 34.8306 1.00742 35.6889 1.30542 36.3425C1.68935 37.1865 2.67649 37.5984 3.55828 37.6144C3.96614 37.6213 4.38047 37.5391 4.75714 37.3758C4.93843 37.2969 5.11095 37.1981 5.27399 37.0862C5.43703 36.9743 5.69361 36.8211 5.70329 36.6088C5.71827 36.253 5.48427 35.8188 5.28285 35.5413C5.02969 35.1881 4.70332 34.8889 4.33654 34.6538C3.34892 34.0231 2.14355 33.8387 0.993152 33.7641C0.815777 33.7524 0.546954 33.8405 0.633583 34.0635C0.720213 34.2865 1.06065 34.4226 1.28191 34.4549C2.03368 34.5642 2.85681 34.6112 3.46402 34.9552C3.95875 35.2353 4.38122 35.7706 4.45242 36.4064L4.50483 36.2389C4.21501 36.5179 3.8589 36.7443 3.46143 36.8335C3.3866 36.8507 3.2642 36.8701 3.21501 36.8749C3.22586 36.8746 3.11893 36.8751 3.09722 36.8757L3.03371 36.875C3.07643 36.8805 3.08059 36.8796 3.03371 36.875C2.98844 36.8679 2.89282 36.8505 2.98936 36.8721C2.97343 36.8692 2.81937 36.8149 2.89351 36.8438C2.96257 36.8695 2.79974 36.7954 2.80228 36.797C2.88012 36.8425 2.76556 36.7594 2.79374 36.788C2.57177 36.5655 2.41191 36.239 2.3874 35.8726C2.36288 35.5062 2.51551 35.1406 2.82404 34.9164C3.06099 34.7437 2.63115 34.4509 2.5062 34.3899C2.25976 34.2737 1.89969 34.1968 1.66113 34.372L1.66275 34.3695Z" fill="white"/>
</g>
<defs>
<clipPath id="clip0_1_81">
<rect width="25" height="38" fill="white"/>
</clipPath>
</defs>
</svg>
