<svg width="41" height="41" viewBox="0 0 41 41" fill="none" xmlns="http://www.w3.org/2000/svg">
<rect width="40.1914" height="40.1914" rx="5.02392" fill="#D92B7C"/>
<path d="M19.0486 30.7681C11.0139 31.1232 10.3503 22.9045 7.28888 20.9009C8.82354 20.4575 9.89807 20.4891 11.2615 21.9154C12.6144 23.3308 13.0579 24.0497 14.0928 25.0846C15.8885 26.8803 17.5582 25.4346 17.9367 23.9019C18.3151 22.3692 18.7463 19.8389 16.1626 19.7477L10.2643 19.7477C8.55598 19.5351 7.78981 19.085 7.02806 17.2371C8.66914 17.5185 12.2284 17.0301 15.5413 17.0034C13.5525 15.8388 12.2432 15.2234 10.3957 13.6594C8.08315 11.7016 8.19642 10.0563 9.26336 8.65537C10.5943 10.4226 11.7667 11.5337 15.2201 13.9001C13.2907 10.7513 13.1195 9.45619 14.5406 8.03819C15.9136 10.2747 16.755 11.4563 18.5674 13.2494C17.7934 11.0039 18.3042 9.55208 19.9185 8.61748C19.8978 9.36926 19.9981 9.74195 20.1789 10.4589C21.1843 14.4457 21.8194 15.3801 23.1994 19.2322C23.5112 20.1027 24.4959 20.2785 25.2967 19.8417C29.425 17.1131 32.0686 16.9097 34.7801 19.1197C30.7025 19.5522 27.0833 30.4131 19.0486 30.7681Z" fill="white"/>
<path d="M22.1113 20.6784C21.5827 20.1248 20.8743 19.8028 20.1291 19.7775C19.3838 19.7522 18.6572 20.0255 18.0959 20.5421C17.5283 20.0135 16.7888 19.7362 16.0316 19.7681C15.2745 19.8 14.5583 20.1386 14.0327 20.7132C13.5071 21.2879 13.2127 22.0541 13.2109 22.8518C13.2092 23.6495 13.5003 24.4171 14.0234 24.9943C14.0516 25.0679 13.8276 24.8021 17.965 29.167C18.0017 29.2057 18.0516 29.2274 18.1035 29.2274C18.1554 29.2274 18.2053 29.2057 18.242 29.167L22.1399 25.0634C22.6766 24.4715 22.9737 23.6831 22.9683 22.8648C22.963 22.0465 22.6557 21.2625 22.1113 20.6784Z" fill="#FF93C5"/>
</svg>
